<?xml version="1.0" standalone="no"?>
<!DOCTYPE svg PUBLIC "-//W3C//DTD SVG 20010904//EN"
 "http://www.w3.org/TR/2001/REC-SVG-20010904/DTD/svg10.dtd">
<svg version="1.0" xmlns="http://www.w3.org/2000/svg"
 width="500.000000pt" height="261.000000pt" viewBox="0 0 500.000000 261.000000"
 preserveAspectRatio="xMidYMid meet">
<metadata>
Created by potrace 1.16, written by Peter Selinger 2001-2019
</metadata>
<g transform="translate(0.000000,261.000000) scale(0.100000,-0.100000)"
fill="#000000" stroke="none">
<path d="M855 2598 c-38 -6 -92 -11 -120 -12 -27 -2 -56 -4 -64 -4 -11 -2 -13
-15 -8 -62 7 -58 6 -60 -23 -75 -16 -8 -43 -15 -60 -15 -21 0 -30 -4 -28 -12
3 -9 26 -13 66 -14 109 -1 97 -30 -17 -39 -41 -3 -81 -11 -88 -17 -15 -12 -18
-74 -4 -83 6 -3 37 3 69 14 33 11 124 27 203 36 79 9 173 20 209 26 36 6 80
13 98 15 24 4 32 10 32 24 0 24 6 24 -60 0 -87 -32 -122 -25 -132 25 -4 22
-38 34 -38 13 0 -8 -15 -19 -33 -26 -40 -15 -133 -16 -142 -2 -3 6 -1 10 5 10
6 0 15 10 20 23 6 12 16 30 22 41 11 15 11 19 0 23 -18 7 -33 39 -26 57 7 19
46 21 73 4 26 -16 141 5 159 29 26 36 15 38 -113 21z"/>
<path d="M1292 2590 c-15 -25 -99 -63 -120 -55 -18 7 -58 -18 -73 -46 -14 -26
1 -39 47 -39 43 0 63 -24 40 -48 -20 -23 -21 -48 -1 -56 38 -14 70 33 41 62
-15 15 -12 17 27 29 23 7 51 13 63 13 28 0 62 38 66 75 3 30 4 30 58 27 73 -3
100 -10 100 -25 0 -16 -36 -38 -68 -42 -26 -3 -52 -29 -52 -52 0 -16 -4 -16
45 2 22 8 73 14 113 15 64 0 72 -2 72 -19 0 -20 -12 -25 -95 -37 -27 -4 -64
-13 -81 -20 -41 -17 -77 -8 -69 17 8 25 -11 25 -24 0 -13 -23 -61 -35 -61 -15
0 27 -19 13 -57 -42 -17 -23 -20 -39 -16 -71 5 -35 2 -43 -15 -52 -12 -6 -34
-11 -49 -11 -105 0 -220 -31 -173 -48 8 -3 30 -20 49 -39 18 -18 38 -33 45
-33 6 0 29 -12 51 -25 32 -20 53 -25 108 -25 59 0 71 3 91 25 26 28 73 48 94
40 10 -4 12 -16 8 -47 -7 -50 -11 -55 -31 -38 -12 10 -18 10 -30 0 -14 -11
-72 -20 -138 -20 -15 0 -38 -5 -50 -12 -12 -7 -49 -13 -82 -14 -109 -2 -173
-21 -130 -38 8 -3 15 -12 15 -21 0 -17 35 -21 45 -5 3 6 15 10 25 10 10 0 26
7 35 16 13 13 28 15 69 10 44 -5 56 -3 74 14 38 36 66 24 50 -20 -8 -24 -16
-29 -46 -32 -36 -3 -37 -4 -33 -38 9 -85 6 -93 -29 -85 -48 11 -97 -11 -103
-45 -4 -17 -15 -31 -27 -35 -11 -3 -20 -11 -20 -16 0 -5 -16 -9 -36 -9 -29 0
-34 3 -25 13 16 21 3 27 -54 27 -56 0 -115 16 -115 31 0 5 -16 23 -35 40 -19
17 -37 39 -40 50 -4 10 -13 19 -21 19 -24 0 -16 19 25 60 35 35 45 40 85 40
25 0 46 -4 46 -10 0 -5 7 -7 15 -4 28 11 4 24 -46 24 -45 0 -66 12 -36 23 6 2
8 8 4 13 -4 5 -12 2 -16 -5 -5 -7 -14 -10 -20 -6 -7 4 -20 -2 -30 -14 -24 -27
-61 -28 -68 -1 -7 26 -36 22 -41 -5 -2 -11 -8 -25 -13 -31 -9 -11 -186 -27
-304 -29 -47 0 -50 1 -47 24 6 40 -6 42 -145 25 -34 -4 -45 -11 -55 -32 -10
-20 -22 -28 -46 -30 -28 -3 -32 -7 -32 -33 0 -27 3 -29 38 -29 68 -1 84 -31
61 -112 -10 -37 -12 -38 -54 -38 -44 0 -45 -1 -45 -32 0 -18 7 -51 14 -73 12
-33 19 -40 38 -38 13 2 52 4 88 6 89 4 101 11 87 46 -8 21 -15 27 -30 23 -23
-6 -37 13 -37 49 0 15 -7 43 -15 62 -15 35 -12 67 6 67 5 0 34 -14 65 -31 l55
-32 27 26 c22 21 44 28 117 38 73 9 95 17 118 37 21 20 38 26 75 26 42 1 47
-1 44 -19 -2 -11 -8 -21 -13 -23 -11 -4 -49 -89 -49 -109 0 -16 68 -126 81
-131 5 -2 9 -15 9 -28 0 -17 -6 -24 -19 -24 -37 0 -51 -27 -51 -96 0 -43 -4
-66 -12 -69 -12 -4 -74 -12 -105 -14 -7 -1 -13 -12 -13 -25 0 -19 -7 -26 -30
-31 -37 -8 -39 -27 -5 -45 20 -11 37 -11 75 -4 32 7 53 7 59 1 6 -6 16 -4 26
7 21 21 24 20 59 -10 26 -23 27 -28 16 -49 -17 -31 -8 -51 26 -58 23 -4 35 2
66 35 21 22 36 44 33 48 -7 12 41 40 70 40 14 0 25 4 25 8 0 11 46 32 70 32
12 0 20 -7 20 -16 0 -13 -3 -14 -14 -5 -10 9 -15 8 -19 -4 -4 -9 2 -19 14 -26
11 -6 22 -9 23 -7 1 2 10 16 20 31 9 15 29 33 44 39 66 26 68 28 64 58 l-4 29
-96 3 c-96 3 -98 4 -119 46 0 2 -31 -6 -68 -17 -72 -22 -115 -27 -115 -12 0 5
-10 11 -22 13 -30 4 -35 34 -7 43 12 4 62 10 110 14 88 6 125 26 51 26 -20 1
-50 6 -65 13 -16 7 -38 12 -50 12 -15 0 -18 3 -9 8 7 5 10 16 6 25 -4 12 -1
17 14 17 11 0 22 8 25 20 3 11 28 30 62 47 l58 27 21 -26 c19 -24 29 -27 128
-33 l108 -7 9 25 c14 35 40 47 104 47 94 0 140 29 115 74 -6 10 -17 14 -31 11
-33 -8 -47 7 -50 50 -2 37 0 39 41 54 24 9 48 24 53 34 6 9 15 17 20 17 6 0
29 9 52 19 23 11 44 19 47 18 3 -1 21 8 41 21 30 18 42 20 64 12 14 -5 41 -11
58 -11 18 -1 25 -3 16 -6 -13 -3 -16 -19 -16 -79 -1 -80 -5 -76 55 -59 13 4
22 14 22 26 0 11 4 18 9 15 18 -11 126 27 148 52 19 22 24 24 38 12 9 -7 14
-22 12 -31 -3 -10 0 -20 7 -23 6 -2 1 -5 -11 -5 -12 -1 -25 -6 -29 -12 -4 -8
3 -9 26 -4 17 4 56 10 86 14 48 7 57 5 68 -11 8 -10 17 -18 22 -16 10 2 84
-21 99 -32 15 -11 65 -18 59 -9 -3 5 2 9 10 9 9 0 16 7 16 15 0 9 6 12 17 8
11 -4 12 -8 5 -11 -22 -7 -12 -24 11 -19 30 7 219 76 225 82 3 3 -1 5 -9 5 -8
0 -21 4 -29 10 -12 7 -11 12 9 29 22 20 31 19 71 -7 2 -2 -2 -7 -10 -13 -10
-6 -5 -7 17 -3 21 4 39 1 54 -10 48 -33 90 -17 116 46 10 23 9 28 -10 40 -33
21 -57 29 -57 18 0 -6 10 -10 22 -10 15 0 19 -3 12 -10 -11 -11 -71 14 -86 35
-13 18 -9 55 7 61 9 4 27 26 40 49 22 37 26 58 31 162 4 103 31 257 33 196 1
-12 6 -23 13 -25 9 -3 9 -12 0 -38 -17 -47 -15 -67 9 -100 22 -30 28 -104 14
-170 -7 -33 -1 -36 42 -19 24 9 30 7 45 -11 21 -26 24 -51 6 -45 -19 7 -42
-11 -33 -25 4 -7 20 -10 36 -8 15 3 26 1 23 -4 -3 -4 13 -15 36 -24 31 -13 42
-23 47 -45 3 -16 11 -34 19 -40 8 -7 11 -21 7 -39 -4 -24 2 -37 45 -82 82 -87
96 -130 112 -343 6 -77 18 -180 27 -228 8 -48 13 -100 10 -115 -3 -16 -1 -68
4 -117 6 -50 11 -102 12 -117 2 -25 12 -31 128 -77 69 -28 173 -71 232 -95
109 -46 309 -116 331 -116 6 0 29 -9 51 -20 22 -11 45 -20 52 -20 24 0 127
-57 152 -84 14 -14 30 -26 37 -26 8 0 20 -13 28 -29 9 -16 22 -31 31 -35 9 -3
14 -10 11 -15 -4 -5 -2 -11 2 -13 5 -1 11 -22 15 -46 3 -24 1 -40 -4 -36 -5 3
-9 -2 -9 -10 0 -8 -12 -24 -26 -35 -23 -18 -24 -21 -8 -21 27 0 151 29 201 47
42 15 77 43 55 43 -6 0 -14 -4 -17 -10 -11 -18 -22 -10 -22 15 0 14 3 25 8 25
5 0 9 5 9 10 0 6 -6 10 -13 8 -26 -6 -13 49 14 57 11 4 29 16 41 28 11 12 18
16 14 10 -9 -15 20 -18 29 -3 3 6 11 10 18 10 6 0 -12 -16 -40 -35 -28 -19
-54 -39 -58 -45 -13 -20 15 -9 75 31 47 31 68 39 87 34 20 -5 24 -3 20 9 -4
10 2 20 16 26 21 11 21 11 3 -4 -17 -13 -17 -16 -4 -16 9 0 22 -2 30 -3 7 -2
10 -2 6 0 -14 8 -8 25 7 20 8 -4 17 -2 20 3 3 5 27 12 53 16 26 4 50 12 54 18
5 7 8 7 8 -2 0 -8 -22 -23 -49 -34 -28 -12 -47 -26 -45 -33 3 -6 -5 -17 -18
-23 -19 -11 -15 -11 32 -7 30 4 59 10 65 15 5 4 26 10 45 13 19 2 27 2 18 0
-10 -2 -18 -9 -18 -14 0 -5 -8 -9 -19 -9 -10 0 -24 -7 -31 -15 -7 -9 -19 -14
-27 -11 -15 6 -83 -34 -121 -71 -13 -12 -30 -19 -38 -16 -8 3 -14 0 -14 -7 0
-7 -8 -10 -19 -7 -14 3 -17 0 -14 -13 4 -13 -4 -18 -33 -23 -23 -4 -41 -2 -45
4 -5 8 -8 8 -13 0 -4 -6 -17 -11 -30 -11 -12 0 -28 -6 -35 -13 -11 -9 -12 -9
-7 0 5 10 -1 11 -26 6 -60 -12 -83 -20 -81 -30 1 -5 -7 -9 -17 -10 -10 -1 -36
-14 -58 -28 -44 -29 -44 -30 -21 -123 l14 -52 357 0 358 0 0 274 0 275 -52 4
-53 3 53 2 52 2 0 1025 0 1025 -1632 0 c-1539 0 -1633 -1 -1651 -17 -19 -16
-20 -16 -14 -1 5 15 -11 17 -196 18 -194 0 -202 0 -215 -20z m279 -303 c20
-15 42 -27 50 -27 8 -1 24 -6 37 -14 21 -11 22 -14 8 -25 -22 -19 -10 -31 30
-31 48 0 43 -28 -11 -55 -25 -14 -41 -30 -46 -48 -11 -40 -27 -56 -49 -50 -32
8 -43 29 -29 52 11 16 10 25 -1 46 -14 26 -61 58 -77 53 -4 -1 -30 4 -56 11
-57 17 -94 58 -74 85 32 44 162 46 218 3z m2199 -39 c0 -59 2 -69 13 -56 19
25 54 6 65 -36 6 -20 20 -49 32 -66 12 -17 19 -38 16 -46 -3 -9 3 -28 14 -44
11 -15 20 -35 20 -44 0 -19 -35 -22 -49 -3 -6 6 -28 33 -49 59 -22 25 -42 58
-46 72 -3 14 -11 23 -19 21 -6 -3 -25 7 -40 21 -21 19 -27 32 -23 48 4 11 11
46 17 76 13 64 15 70 35 70 11 0 14 -16 14 -72z m-191 40 c15 -40 43 -228 38
-255 -4 -22 -2 -24 19 -19 23 6 24 4 24 -37 0 -68 -63 -116 -65 -48 0 8 -8 19
-17 24 -22 15 -72 -7 -64 -28 7 -18 -3 -45 -15 -45 -5 0 -15 11 -21 25 -6 14
-17 25 -25 25 -7 0 -13 9 -13 20 0 11 6 20 14 20 8 0 16 10 18 23 3 19 10 23
65 27 60 5 61 5 45 25 -9 12 -25 24 -34 28 -19 7 -24 42 -8 52 6 3 10 46 10
96 0 88 11 114 29 67z m-134 -32 c20 -19 36 -38 36 -43 -1 -4 5 -8 12 -8 9 0
11 -21 10 -74 -2 -81 -7 -93 -26 -68 -11 16 -15 15 -49 -8 -20 -14 -44 -25
-52 -25 -8 0 -36 -14 -61 -31 -50 -34 -70 -34 -36 0 12 12 21 29 21 39 0 24
19 42 46 42 12 0 25 7 28 16 9 22 7 66 -1 61 -5 -3 -9 19 -10 48 -2 38 2 59
13 69 21 22 26 21 69 -18z"/>
<path d="M510 2201 c0 -51 -28 -73 -101 -80 -63 -6 -64 -6 -61 -35 5 -43 25
-57 97 -67 60 -8 68 -7 95 12 27 20 28 25 23 72 -4 28 -12 62 -20 76 -7 15
-13 32 -13 39 0 6 -4 12 -10 12 -5 0 -10 -13 -10 -29z"/>
<path d="M800 2161 c0 -6 -10 -11 -22 -11 -12 0 -43 -7 -68 -16 -25 -9 -50
-18 -57 -20 -30 -8 32 -114 68 -114 17 0 73 29 119 62 24 18 24 19 10 60 -9
25 -22 44 -32 46 -10 2 -18 -1 -18 -7z"/>
<path d="M1535 1917 c-51 -30 -84 -59 -79 -71 3 -8 1 -17 -5 -21 -13 -7 -15
-82 -2 -89 5 -3 34 -7 65 -8 97 -4 67 -37 -54 -60 -65 -12 -77 -18 -59 -28 16
-11 -5 -88 -27 -97 -24 -9 -16 -26 10 -19 18 4 26 1 30 -12 5 -16 81 -71 102
-76 14 -2 74 267 66 297 -1 4 2 7 6 7 5 0 14 11 20 25 11 24 11 25 -16 18 -33
-9 -81 -9 -106 0 -15 6 -16 10 -6 22 6 8 10 20 8 27 -5 15 23 44 51 53 12 3
21 15 21 26 0 10 -1 19 -2 18 -2 -1 -12 -6 -23 -12z"/>
<path d="M409 1563 c-5 -16 -11 -33 -14 -40 -9 -26 -55 -44 -131 -49 -44 -3
-81 -7 -84 -9 -3 -2 -30 1 -60 6 -34 5 -58 5 -64 -1 -6 -6 -20 -10 -33 -10
-18 0 -23 -5 -23 -27 l0 -28 157 -1 c87 -1 183 -5 213 -9 71 -8 95 7 92 58 -1
19 3 41 11 49 22 22 27 46 11 58 -10 9 -14 9 -14 1 0 -6 -4 -11 -10 -11 -5 0
-10 9 -10 20 0 30 -29 24 -41 -7z"/>
<path d="M1305 1383 c-17 -9 -52 -17 -79 -17 -54 -1 -74 -21 -32 -32 14 -3 26
-10 26 -14 0 -11 -30 -21 -41 -15 -5 3 -18 1 -29 -5 -19 -10 -19 -11 0 -43 11
-17 20 -40 20 -49 0 -20 25 -24 36 -7 4 6 20 8 40 4 33 -6 94 16 94 34 0 12
62 23 72 13 4 -4 10 -29 13 -54 4 -34 2 -46 -7 -45 -63 2 -90 -4 -95 -23 -4
-14 -14 -20 -35 -20 -25 0 -28 3 -19 14 19 23 -10 39 -42 23 -33 -15 -34 -24
-4 -30 17 -3 15 -5 -9 -6 -16 0 -35 4 -42 11 -8 8 -15 8 -25 0 -7 -6 -29 -13
-49 -15 -20 -2 -43 -9 -50 -15 -8 -6 -62 -14 -122 -18 l-107 -7 6 -24 c3 -14
0 -31 -6 -40 -16 -19 5 -35 38 -30 25 5 59 -25 48 -42 -8 -13 -2 -13 66 -1 30
5 83 14 119 20 35 7 73 18 84 26 11 8 34 14 50 14 29 0 29 0 10 -18 -10 -9
-39 -26 -64 -37 -42 -19 -166 -113 -158 -121 2 -1 24 4 48 12 58 20 118 13
195 -25 50 -25 143 -101 123 -101 -4 0 -13 7 -22 15 -13 14 -15 13 -13 -4 1
-11 3 -18 6 -16 7 8 41 -27 41 -42 0 -7 7 -13 16 -13 10 0 14 -6 10 -15 -3 -9
0 -15 9 -15 16 0 40 -38 31 -48 -3 -3 -6 1 -6 8 0 7 -2 11 -5 8 -11 -10 7 -37
21 -31 10 4 12 0 8 -11 -3 -9 -1 -16 5 -16 6 0 11 -9 11 -19 0 -18 -9 -19
-127 -20 -71 -1 -152 -2 -182 -3 -35 0 -56 4 -62 13 -6 10 -9 10 -9 2 0 -7
-12 -19 -27 -27 -16 -9 -21 -15 -13 -16 13 0 13 -1 0 -10 -11 -8 -4 -9 25 -6
22 2 30 1 19 -1 -12 -2 -30 -14 -40 -25 -19 -21 -19 -21 2 -10 11 6 66 22 121
36 121 31 235 34 313 9 63 -20 226 -116 223 -131 -2 -7 4 -9 14 -5 12 5 14 3
8 -7 -5 -8 -4 -11 2 -7 14 9 114 -66 168 -124 22 -24 30 -35 18 -25 -13 11
-23 16 -23 12 0 -15 33 -56 46 -56 24 0 15 -20 -8 -21 -14 -1 -17 -3 -7 -6 8
-2 21 -20 28 -40 10 -26 15 -32 22 -22 6 10 9 11 9 2 0 -10 86 -13 398 -13
359 0 406 2 470 19 40 10 78 24 86 30 7 6 20 9 29 5 10 -3 26 6 43 26 15 17
48 43 73 59 40 24 55 28 121 27 64 -1 75 -3 72 -18 -1 -9 6 -19 18 -23 36 -11
21 -24 -16 -13 -45 12 -50 7 -27 -28 l18 -29 -36 21 c-32 19 -37 20 -45 6 -9
-14 -14 -13 -40 7 -26 19 -36 21 -65 13 -29 -9 -30 -10 -9 -11 14 -1 31 -5 39
-10 10 -7 -4 -12 -47 -17 -60 -6 -71 -15 -54 -40 4 -7 46 -14 97 -17 50 -3 78
-3 63 -1 -19 4 -30 13 -34 30 -4 14 -4 27 -1 30 6 7 63 -21 96 -47 26 -21 81
-26 81 -7 0 9 3 9 12 0 11 -11 58 -17 58 -8 0 3 -5 17 -10 33 l-10 28 20 -25
c11 -14 20 -28 20 -32 0 -12 90 -10 90 1 0 46 -69 129 -135 164 -41 21 -106
27 -157 14 -65 -17 3 40 88 73 27 11 44 19 37 20 -6 0 -20 3 -30 6 -15 5 -15
4 -3 -5 13 -9 13 -11 0 -11 -8 0 -28 -7 -44 -15 -31 -16 -51 -11 -26 6 11 8
10 9 -5 2 -11 -4 -65 -9 -120 -9 -92 -1 -105 1 -162 28 -34 17 -68 28 -76 25
-7 -2 -21 1 -32 9 -10 8 -29 14 -40 14 -12 0 -48 10 -81 21 -32 12 -78 22
-101 23 -24 0 -51 9 -63 19 -11 9 -26 17 -33 17 -8 0 -17 3 -21 7 -15 15 -80
31 -133 32 -31 0 -59 4 -62 8 -3 5 -19 10 -36 12 -16 1 -34 6 -40 11 -11 8
-62 19 -110 23 -18 1 -29 7 -28 15 2 6 -4 12 -12 12 -8 0 -15 5 -15 10 0 6 -6
10 -14 10 -8 0 -16 7 -18 17 -2 9 -19 22 -38 29 l-35 12 30 2 c26 1 27 3 10
10 -30 13 -143 12 -168 -1 -16 -9 -22 -9 -25 0 -5 14 -49 15 -57 1 -10 -17
-19 -12 -71 36 -27 26 -64 58 -81 71 l-33 25 -28 -30 c-25 -27 -27 -31 -14
-53 14 -23 14 -23 -7 1 -11 14 -19 31 -16 37 2 7 -1 12 -8 10 -6 -1 -20 21
-29 48 -21 58 -18 149 7 232 21 70 93 164 166 218 58 43 82 52 259 103 34 10
34 10 -10 5 -86 -10 -175 -35 -248 -71 -41 -19 -79 -40 -86 -46 -6 -6 -21 -16
-31 -23 -11 -6 -19 -16 -17 -23 1 -6 -1 -9 -6 -6 -5 3 -31 -15 -58 -40 -27
-25 -64 -53 -83 -61 -19 -8 -49 -26 -66 -39 -40 -30 -50 -30 -30 0 9 13 42 35
73 49 48 21 61 32 83 74 17 31 25 59 22 74 -3 14 2 42 11 63 l15 37 -32 -6
c-42 -7 -87 20 -101 63 l-11 32 -30 -17z"/>
<path d="M203 1290 c-5 -20 -13 -23 -85 -35 -21 -3 -38 -11 -38 -16 0 -15 56
-69 72 -69 26 0 93 46 105 71 11 23 19 26 75 28 73 2 93 11 24 11 -39 0 -47 3
-42 15 4 12 -5 15 -50 15 -48 0 -57 -3 -61 -20z"/>
<path d="M392 1124 c-27 -18 -20 -34 14 -34 36 0 29 -17 -11 -24 -36 -7 -75 9
-75 31 0 24 -16 13 -31 -19 l-14 -33 -138 2 -137 1 0 -49 0 -50 60 7 c57 6 60
6 60 -15 0 -28 -41 -67 -86 -81 -31 -11 -34 -15 -34 -51 0 -38 1 -39 28 -33
35 9 43 14 37 23 -2 5 4 16 14 25 15 14 29 16 63 11 40 -6 44 -5 61 25 17 28
23 31 60 28 34 -2 43 -7 45 -25 2 -15 -5 -27 -23 -39 -32 -21 -19 -39 18 -25
16 6 27 18 27 30 0 32 21 38 105 31 91 -8 123 3 121 42 -1 13 9 32 23 44 36
31 20 45 -30 28 -57 -20 -121 -27 -138 -15 -12 8 -9 16 17 46 36 40 36 39 22
66 -9 15 -7 19 5 19 21 0 31 30 14 41 -21 13 -52 11 -77 -7z"/>
<path d="M852 687 c-5 -18 -10 -24 -11 -15 -1 10 -9 16 -20 15 -11 0 -17 -5
-15 -9 3 -4 -7 -8 -23 -8 -34 0 -97 -22 -163 -55 -53 -27 -84 -31 -124 -15
-21 8 -24 7 -19 -7 5 -12 2 -15 -10 -10 -8 3 -21 0 -27 -8 -8 -10 -5 -18 16
-34 l27 -21 -27 0 c-16 0 -26 -6 -26 -14 0 -20 -48 -28 -90 -16 -42 12 -43 12
-36 1 4 -5 1 -11 -6 -13 -7 -3 10 -10 37 -17 103 -25 127 -32 122 -37 -2 -3
-56 6 -118 20 -63 13 -154 27 -204 31 -50 3 -101 8 -113 11 -16 3 -23 1 -20
-8 2 -6 44 -22 92 -35 96 -26 250 -82 243 -90 -3 -2 -34 7 -69 21 -67 27 -155
50 -225 60 -38 5 -43 4 -43 -13 0 -29 24 -42 97 -52 37 -5 102 -15 143 -20 41
-6 86 -11 100 -11 21 0 22 -1 7 -9 -9 -6 -21 -8 -26 -4 -5 3 -17 -2 -26 -12
-11 -11 -39 -18 -79 -21 -33 -2 -58 0 -54 4 4 4 22 7 40 6 30 0 31 1 9 9 -33
13 -176 13 -198 0 -16 -9 -16 -10 7 -11 14 -1 19 -4 12 -7 -6 -2 -10 -9 -6
-14 3 -5 1 -9 -5 -9 -5 0 -12 6 -15 13 -3 6 -4 -8 -3 -32 l2 -44 75 -22 c270
-81 454 -144 446 -153 -2 -1 -64 17 -137 42 -74 25 -165 51 -204 57 -87 13
-101 15 -148 24 -32 6 -37 5 -37 -12 0 -16 19 -23 118 -47 64 -16 169 -44 232
-62 111 -33 229 -46 215 -24 -4 7 3 7 20 0 22 -8 225 -15 225 -7 0 1 -9 31
-21 67 -27 86 -34 196 -20 300 13 98 29 149 77 243 38 74 40 82 22 71 -8 -4
-10 -3 -5 2 5 5 14 9 20 9 19 0 18 21 -2 22 -13 1 -22 -8 -29 -30z"/>
<path d="M4175 170 c-3 -5 -13 -6 -21 -3 -8 3 -25 1 -37 -4 -12 -6 -44 -17
-72 -26 -60 -18 -208 -79 -215 -89 -3 -3 -18 -10 -33 -13 -44 -11 -34 -35 16
-35 34 0 50 7 82 36 54 47 76 55 173 64 66 5 87 11 107 30 25 24 33 50 16 50
-6 0 -12 -4 -16 -10z"/>
</g>
</svg>
